<svg width="500" height="168" viewBox="0 0 500 168" fill="none" xmlns="http://www.w3.org/2000/svg">
    <rect width="500" height="168" fill="#0d1117" rx="10"/>
    <rect x="0.5" y="0.5" width="499" height="167" stroke="#30363d" rx="10"/>

    <text x="20" y="35" fill="#c9d1d9" font-size="20" font-weight="600" font-family="-apple-system, BlinkMacSystemFont, 'Segoe UI', sans-serif">cloudscraper-mcp-server</text>

    <text x="20" y="60" fill="#8b949e" font-size="14" font-family="-apple-system, BlinkMacSystemFont, 'Segoe UI', sans-serif">Model Context Protocol server (wrapper) for cloudscraper</text>

    
                <rect x="20" y="95" width="100" height="24" rx="12" fill="#1f6feb" opacity="0.3"/>
                <text x="70" y="111" fill="#ffffff" font-size="12" font-weight="500" text-anchor="middle">cloudscraper</text>
            
                <rect x="128" y="95" width="170" height="24" rx="12" fill="#1f6feb" opacity="0.3"/>
                <text x="213" y="111" fill="#ffffff" font-size="12" font-weight="500" text-anchor="middle">model-context-protocol</text>
            

    <g transform="translate(20, 138)">
        <svg width="16" height="16" viewBox="0 0 16 16">
            <path d="M8 .25a.75.75 0 0 1 .673.418l1.882 3.815 4.21.612a.75.75 0 0 1 .416 1.279l-3.046 2.97.719 4.192a.751.751 0 0 1-1.088.791L8 12.347l-3.766 1.98a.75.75 0 0 1-1.088-.79l.72-4.194L.818 6.374a.75.75 0 0 1 .416-1.28l4.21-.611L7.327.668A.75.75 0 0 1 8 .25Z" fill="#58a6ff"/>
        </svg>
        <text x="22" y="12" fill="#8b949e" font-size="14" font-family="-apple-system, BlinkMacSystemFont, 'Segoe UI', sans-serif">0</text>
    </g>

    <g transform="translate(100, 138)">
        <svg width="16" height="16" viewBox="0 0 16 16">
            <path d="M5 5.372v.878c0 .414.336.75.75.75h4.5a.75.75 0 0 0 .75-.75v-.878a2.25 2.25 0 1 1 1.5 0v.878a2.25 2.25 0 0 1-2.25 2.25h-1.5v2.128a2.251 2.251 0 1 1-1.5 0V8.5h-1.5A2.25 2.25 0 0 1 3.5 6.25v-.878a2.25 2.25 0 1 1 1.5 0ZM5 3.25a.75.75 0 1 0-1.5 0 .75.75 0 0 0 1.5 0Zm6.75.75a.75.75 0 1 0 0-1.5.75.75 0 0 0 0 1.5Zm-3 8.75a.75.75 0 1 0-1.5 0 .75.75 0 0 0 1.5 0Z" fill="#58a6ff"/>
        </svg>
        <text x="22" y="12" fill="#8b949e" font-size="14" font-family="-apple-system, BlinkMacSystemFont, 'Segoe UI', sans-serif">0</text>
    </g>
</svg>